<svg width="32" height="32" viewBox="0 0 32 32" fill="none" xmlns="http://www.w3.org/2000/svg">
  <rect width="32" height="32" fill="#f5f5f5" rx="4"/>
  <g transform="translate(16, 16)">
    <circle cx="0" cy="0" r="3" fill="#1e40af"/>
    
    <path d="M 0,-3 L 1,-7 L 3,-12 L 2,-13 L 0.5,-8 L 0,-4 Z" fill="#1e40af"/>
    <path d="M 0,-3 L -1,-7 L -3,-12 L -2,-13 L -0.5,-8 L 0,-4 Z" fill="#2563eb"/>
    
    <g transform="rotate(60)">
      <path d="M 0,-3 L 1,-7 L 3,-12 L 2,-13 L 0.5,-8 L 0,-4 Z" fill="#1e40af"/>
      <path d="M 0,-3 L -1,-7 L -3,-12 L -2,-13 L -0.5,-8 L 0,-4 Z" fill="#2563eb"/>
    </g>
    
    <g transform="rotate(120)">
      <path d="M 0,-3 L 1,-7 L 3,-12 L 2,-13 L 0.5,-8 L 0,-4 Z" fill="#1e40af"/>
      <path d="M 0,-3 L -1,-7 L -3,-12 L -2,-13 L -0.5,-8 L 0,-4 Z" fill="#2563eb"/>
    </g>
    
    <g transform="rotate(180)">
      <path d="M 0,-3 L 1,-7 L 3,-12 L 2,-13 L 0.5,-8 L 0,-4 Z" fill="#1e40af"/>
      <path d="M 0,-3 L -1,-7 L -3,-12 L -2,-13 L -0.5,-8 L 0,-4 Z" fill="#2563eb"/>
    </g>
    
    <g transform="rotate(240)">
      <path d="M 0,-3 L 1,-7 L 3,-12 L 2,-13 L 0.5,-8 L 0,-4 Z" fill="#1e40af"/>
      <path d="M 0,-3 L -1,-7 L -3,-12 L -2,-13 L -0.5,-8 L 0,-4 Z" fill="#2563eb"/>
    </g>
    
    <g transform="rotate(300)">
      <path d="M 0,-3 L 1,-7 L 3,-12 L 2,-13 L 0.5,-8 L 0,-4 Z" fill="#1e40af"/>
      <path d="M 0,-3 L -1,-7 L -3,-12 L -2,-13 L -0.5,-8 L 0,-4 Z" fill="#2563eb"/>
    </g>
  </g>
</svg>

