<svg width="192" height="192" viewBox="0 0 192 192" fill="none" xmlns="http://www.w3.org/2000/svg">
  <rect width="192" height="192" fill="#f5f5f5"/>
  <g transform="translate(96, 96)">
    <circle cx="0" cy="0" r="18" fill="#1e40af" stroke="#f5f5f5" stroke-width="2"/>
    
    <path d="M 0,-18 L 7,-45 L 17,-70 L 14,-73 L 4,-50 L 0,-22 Z" fill="#1e40af"/>
    <path d="M 0,-18 L -7,-45 L -17,-70 L -14,-73 L -4,-50 L 0,-22 Z" fill="#2563eb"/>
    
    <g transform="rotate(60)">
      <path d="M 0,-18 L 7,-45 L 17,-70 L 14,-73 L 4,-50 L 0,-22 Z" fill="#1e40af"/>
      <path d="M 0,-18 L -7,-45 L -17,-70 L -14,-73 L -4,-50 L 0,-22 Z" fill="#2563eb"/>
    </g>
    
    <g transform="rotate(120)">
      <path d="M 0,-18 L 7,-45 L 17,-70 L 14,-73 L 4,-50 L 0,-22 Z" fill="#1e40af"/>
      <path d="M 0,-18 L -7,-45 L -17,-70 L -14,-73 L -4,-50 L 0,-22 Z" fill="#2563eb"/>
    </g>
    
    <g transform="rotate(180)">
      <path d="M 0,-18 L 7,-45 L 17,-70 L 14,-73 L 4,-50 L 0,-22 Z" fill="#1e40af"/>
      <path d="M 0,-18 L -7,-45 L -17,-70 L -14,-73 L -4,-50 L 0,-22 Z" fill="#2563eb"/>
    </g>
    
    <g transform="rotate(240)">
      <path d="M 0,-18 L 7,-45 L 17,-70 L 14,-73 L 4,-50 L 0,-22 Z" fill="#1e40af"/>
      <path d="M 0,-18 L -7,-45 L -17,-70 L -14,-73 L -4,-50 L 0,-22 Z" fill="#2563eb"/>
    </g>
    
    <g transform="rotate(300)">
      <path d="M 0,-18 L 7,-45 L 17,-70 L 14,-73 L 4,-50 L 0,-22 Z" fill="#1e40af"/>
      <path d="M 0,-18 L -7,-45 L -17,-70 L -14,-73 L -4,-50 L 0,-22 Z" fill="#2563eb"/>
    </g>
    
    <circle cx="0" cy="0" r="3" fill="#f5f5f5" opacity="0.4"/>
  </g>
</svg>

