<svg width="512" height="512" viewBox="0 0 512 512" fill="none" xmlns="http://www.w3.org/2000/svg">
  <!-- Icon version - more compact, suitable for app icons -->
  <rect width="512" height="512" fill="#f5f5f5"/>
  <g transform="translate(256, 256)">
    <!-- Center circle -->
    <circle cx="0" cy="0" r="50" fill="#1e40af" stroke="#f5f5f5" stroke-width="4"/>
    
    <!-- 6 spider legs/spikes -->
    <path d="M 0,-50 L 20,-120 L 45,-185 L 37,-195 L 12,-135 L 0,-60 Z" fill="#1e40af"/>
    <path d="M 0,-50 L -20,-120 L -45,-185 L -37,-195 L -12,-135 L 0,-60 Z" fill="#2563eb"/>
    
    <g transform="rotate(60)">
      <path d="M 0,-50 L 20,-120 L 45,-185 L 37,-195 L 12,-135 L 0,-60 Z" fill="#1e40af"/>
      <path d="M 0,-50 L -20,-120 L -45,-185 L -37,-195 L -12,-135 L 0,-60 Z" fill="#2563eb"/>
    </g>
    
    <g transform="rotate(120)">
      <path d="M 0,-50 L 20,-120 L 45,-185 L 37,-195 L 12,-135 L 0,-60 Z" fill="#1e40af"/>
      <path d="M 0,-50 L -20,-120 L -45,-185 L -37,-195 L -12,-135 L 0,-60 Z" fill="#2563eb"/>
    </g>
    
    <g transform="rotate(180)">
      <path d="M 0,-50 L 20,-120 L 45,-185 L 37,-195 L 12,-135 L 0,-60 Z" fill="#1e40af"/>
      <path d="M 0,-50 L -20,-120 L -45,-185 L -37,-195 L -12,-135 L 0,-60 Z" fill="#2563eb"/>
    </g>
    
    <g transform="rotate(240)">
      <path d="M 0,-50 L 20,-120 L 45,-185 L 37,-195 L 12,-135 L 0,-60 Z" fill="#1e40af"/>
      <path d="M 0,-50 L -20,-120 L -45,-185 L -37,-195 L -12,-135 L 0,-60 Z" fill="#2563eb"/>
    </g>
    
    <g transform="rotate(300)">
      <path d="M 0,-50 L 20,-120 L 45,-185 L 37,-195 L 12,-135 L 0,-60 Z" fill="#1e40af"/>
      <path d="M 0,-50 L -20,-120 L -45,-185 L -37,-195 L -12,-135 L 0,-60 Z" fill="#2563eb"/>
    </g>
    
    <!-- Center detail -->
    <circle cx="-15" cy="-15" r="5" fill="#f5f5f5" opacity="0.3"/>
    <circle cx="15" cy="-15" r="5" fill="#f5f5f5" opacity="0.3"/>
    <circle cx="-15" cy="15" r="5" fill="#f5f5f5" opacity="0.3"/>
    <circle cx="15" cy="15" r="5" fill="#f5f5f5" opacity="0.3"/>
    <circle cx="0" cy="0" r="6" fill="#f5f5f5" opacity="0.4"/>
  </g>
</svg>

